<?xml version="1.0" encoding="UTF-8" standalone="no" ?>
<!DOCTYPE svg PUBLIC "-//W3C//DTD SVG 1.1//EN" "http://www.w3.org/Graphics/SVG/1.1/DTD/svg11.dtd">
<svg xmlns="http://www.w3.org/2000/svg" xmlns:xlink="http://www.w3.org/1999/xlink" version="1.1" width="210" height="210" viewBox="0 0 210 210" xml:space="preserve">
<desc>Created with Fabric.js 4.6.0</desc>
<defs>
</defs>
<g transform="matrix(1 0 0 1 105 105)" id="aCzLxMsqZl6PNpuKxF2LA"  >
<g style="" vector-effect="non-scaling-stroke"   >
		<g transform="matrix(1 0 0 1 -0.97 14.7)" id="eb8qVXvYK6DZvQVM93lyC"  >
<path style="stroke: rgb(0,0,0); stroke-width: 1; stroke-dasharray: none; stroke-linecap: butt; stroke-dashoffset: 0; stroke-linejoin: miter; stroke-miterlimit: 4; fill: rgb(255,255,255); fill-opacity: 0; fill-rule: nonzero; opacity: 1;" vector-effect="non-scaling-stroke"  transform=" translate(0, 0)" d="M 81.14858 31.70018 C 23.490919999999996 61.42991 -34.166740000000004 42.51099 -34.166740000000004 42.51099 C -34.166740000000004 42.51099 -129.66224 17.28576 -89.12169 -25.957479999999997 C -48.58115 -69.20071999999999 81.14858000000001 -36.76828999999999 81.14858000000001 -36.76828999999999 L 89.25669 -25.957479999999993 C 89.25669 -25.957479999999993 73.94137 -7.038559999999993 55.92336000000001 -2.534059999999993 C 37.90534000000001 1.970440000000007 138.80624 1.970440000000007 81.14859000000001 31.700170000000004 z" stroke-linecap="round" />
</g>
		<g transform="matrix(1 0 0 1 53.15 -10.36)" id="J6P4Mc8podhSo0Dtlvxv8"  >
<path style="stroke: rgb(0,0,0); stroke-width: 1; stroke-dasharray: none; stroke-linecap: butt; stroke-dashoffset: 0; stroke-linejoin: miter; stroke-miterlimit: 4; fill: rgb(255,255,255); fill-opacity: 0; fill-rule: nonzero; opacity: 1;" vector-effect="non-scaling-stroke"  transform=" translate(0, 0)" d="M 0 0" stroke-linecap="round" />
</g>
		<g transform="matrix(1 0 0 1 20.97 -39.29)" id="4OJYDQlZQr-ZJhxeFE0Fj"  >
<path style="stroke: rgb(0,0,0); stroke-width: 1; stroke-dasharray: none; stroke-linecap: butt; stroke-dashoffset: 0; stroke-linejoin: miter; stroke-miterlimit: 4; fill: rgb(255,255,255); fill-opacity: 0; fill-rule: nonzero; opacity: 1;" vector-effect="non-scaling-stroke"  transform=" translate(0, 0)" d="M -32.18243 35.36036 C 4.754510000000003 -27.7027 32.18243 -35.36036 32.18243 -35.36036" stroke-linecap="round" />
</g>
		<g transform="matrix(1 0 0 1 12.43 -24.12)" id="S5knm6RZ67emSj0kYwGpp"  >
<path style="stroke: rgb(0,0,0); stroke-width: 1; stroke-dasharray: none; stroke-linecap: butt; stroke-dashoffset: 0; stroke-linejoin: miter; stroke-miterlimit: 4; fill: rgb(255,255,255); fill-opacity: 0; fill-rule: nonzero; opacity: 1;" vector-effect="non-scaling-stroke"  transform=" translate(0, 0)" d="M 39.72132 -50.70045 C 39.72132 -50.70045 -7.526430000000005 29.078830000000004 -19.23814 25.475230000000003 C -30.94985 21.871630000000003 -42.66156 29.078830000000004 -39.05796 50.70046000000001" stroke-linecap="round" />
</g>
		<g transform="matrix(1 0 0 1 -16.53 11.31)" id="wjbXscKW7p2pGkpnM_Zcg"  >
<path style="stroke: rgb(0,0,0); stroke-width: 1; stroke-dasharray: none; stroke-linecap: butt; stroke-dashoffset: 0; stroke-linejoin: miter; stroke-miterlimit: 4; fill: rgb(255,255,255); fill-opacity: 0; fill-rule: nonzero; opacity: 1;" vector-effect="non-scaling-stroke"  transform=" translate(0, 0)" d="M -8.85877 10.81081 C -8.85877 10.81081 17.02982 -1.8018 6.219010000000001 -10.81081" stroke-linecap="round" />
</g>
		<g transform="matrix(1 0 0 1 -69.17 -10.36)" id="ndM_RGLqdaN-MFLaEQZ3Z"  >
<path style="stroke: rgb(0,0,0); stroke-width: 1; stroke-dasharray: none; stroke-linecap: butt; stroke-dashoffset: 0; stroke-linejoin: miter; stroke-miterlimit: 4; fill: rgb(255,255,255); fill-opacity: 0; fill-rule: nonzero; opacity: 1;" vector-effect="non-scaling-stroke"  transform=" translate(0, 0)" d="M 0 0" stroke-linecap="round" />
</g>
		<g transform="matrix(1 0 0 1 58.3 -9.86)" id="Mltz39l9d67k2WGSnmDvg"  >
<path style="stroke: rgb(0,0,0); stroke-width: 1; stroke-dasharray: none; stroke-linecap: butt; stroke-dashoffset: 0; stroke-linejoin: miter; stroke-miterlimit: 4; fill: rgb(255,255,255); fill-opacity: 0; fill-rule: nonzero; opacity: 1;" vector-effect="non-scaling-stroke"  transform=" translate(-11.86, -5.93)" d="M 11.8644 0 C 18.41355 0 23.7288 2.65763 23.7288 5.9322 C 23.7288 9.20677 18.41355 11.8644 11.8644 11.8644 C 5.31525 11.8644 0 9.206769999999999 0 5.9322 C 0 2.6576299999999997 5.31525 0 11.8644 0 z" stroke-linecap="round" />
</g>
		<g transform="matrix(1 0 0 1 -41.26 -16.29)" id="Y8bl1cdHga1PF_ZSNIqNi"  >
<path style="stroke: rgb(0,0,0); stroke-width: 1; stroke-dasharray: none; stroke-linecap: butt; stroke-dashoffset: 0; stroke-linejoin: miter; stroke-miterlimit: 4; fill: rgb(255,255,255); fill-opacity: 0; fill-rule: nonzero; opacity: 1;" vector-effect="non-scaling-stroke"  transform=" translate(-11.86, -5.93)" d="M 11.8644 0 C 18.41355 0 23.7288 2.65763 23.7288 5.9322 C 23.7288 9.20677 18.41355 11.8644 11.8644 11.8644 C 5.31525 11.8644 0 9.206769999999999 0 5.9322 C 0 2.6576299999999997 5.31525 0 11.8644 0 z" stroke-linecap="round" />
</g>
		<g transform="matrix(1 0 0 1 -68.67 0)" id="GUDPZQchbSEV8Pwg4LIDM"  >
<path style="stroke: rgb(0,0,0); stroke-width: 1; stroke-dasharray: none; stroke-linecap: butt; stroke-dashoffset: 0; stroke-linejoin: miter; stroke-miterlimit: 4; fill: rgb(255,255,255); fill-opacity: 0; fill-rule: nonzero; opacity: 1;" vector-effect="non-scaling-stroke"  transform=" translate(-11.86, -5.93)" d="M 11.8644 0 C 18.41355 0 23.7288 2.65763 23.7288 5.9322 C 23.7288 9.20677 18.41355 11.8644 11.8644 11.8644 C 5.31525 11.8644 0 9.206769999999999 0 5.9322 C 0 2.6576299999999997 5.31525 0 11.8644 0 z" stroke-linecap="round" />
</g>
		<g transform="matrix(1 0 0 1 -65.98 24.25)" id="98PcyJHj3HS5wl9OC3lJi"  >
<path style="stroke: rgb(0,0,0); stroke-width: 1; stroke-dasharray: none; stroke-linecap: butt; stroke-dashoffset: 0; stroke-linejoin: miter; stroke-miterlimit: 4; fill: rgb(255,255,255); fill-opacity: 0; fill-rule: nonzero; opacity: 1;" vector-effect="non-scaling-stroke"  transform=" translate(-11.86, -5.93)" d="M 11.8644 0 C 18.41355 0 23.7288 2.65763 23.7288 5.9322 C 23.7288 9.20677 18.41355 11.8644 11.8644 11.8644 C 5.31525 11.8644 0 9.206769999999999 0 5.9322 C 0 2.6576299999999997 5.31525 0 11.8644 0 z" stroke-linecap="round" />
</g>
		<g transform="matrix(1 0 0 1 -25.89 42.84)" id="MlbpK05-vHmNI0tmki2MZ"  >
<path style="stroke: rgb(0,0,0); stroke-width: 1; stroke-dasharray: none; stroke-linecap: butt; stroke-dashoffset: 0; stroke-linejoin: miter; stroke-miterlimit: 4; fill: rgb(255,255,255); fill-opacity: 0; fill-rule: nonzero; opacity: 1;" vector-effect="non-scaling-stroke"  transform=" translate(-11.86, -5.93)" d="M 11.8644 0 C 18.41355 0 23.7288 2.65763 23.7288 5.9322 C 23.7288 9.20677 18.41355 11.8644 11.8644 11.8644 C 5.31525 11.8644 0 9.206769999999999 0 5.9322 C 0 2.6576299999999997 5.31525 0 11.8644 0 z" stroke-linecap="round" />
</g>
		<g transform="matrix(1 0 0 1 20.97 42.84)" id="kXeID48LqIOiG02HvV0Qu"  >
<path style="stroke: rgb(0,0,0); stroke-width: 1; stroke-dasharray: none; stroke-linecap: butt; stroke-dashoffset: 0; stroke-linejoin: miter; stroke-miterlimit: 4; fill: rgb(255,255,255); fill-opacity: 0; fill-rule: nonzero; opacity: 1;" vector-effect="non-scaling-stroke"  transform=" translate(-11.86, -5.93)" d="M 11.8644 0 C 18.41355 0 23.7288 2.65763 23.7288 5.9322 C 23.7288 9.20677 18.41355 11.8644 11.8644 11.8644 C 5.31525 11.8644 0 9.206769999999999 0 5.9322 C 0 2.6576299999999997 5.31525 0 11.8644 0 z" stroke-linecap="round" />
</g>
		<g transform="matrix(1 0 0 1 58.3 37.11)" id="0O5VT3JrkCVZn50Je-rcX"  >
<path style="stroke: rgb(0,0,0); stroke-width: 1; stroke-dasharray: none; stroke-linecap: butt; stroke-dashoffset: 0; stroke-linejoin: miter; stroke-miterlimit: 4; fill: rgb(255,255,255); fill-opacity: 0; fill-rule: nonzero; opacity: 1;" vector-effect="non-scaling-stroke"  transform=" translate(-11.86, -5.93)" d="M 11.8644 0 C 18.41355 0 23.7288 2.65763 23.7288 5.9322 C 23.7288 9.20677 18.41355 11.8644 11.8644 11.8644 C 5.31525 11.8644 0 9.206769999999999 0 5.9322 C 0 2.6576299999999997 5.31525 0 11.8644 0 z" stroke-linecap="round" />
</g>
</g>
</g>
</svg>